<?xml version="1.0" encoding="UTF-8" standalone="no"?>
<svg
   xmlns:dc="http://purl.org/dc/elements/1.1/"
   xmlns:cc="http://creativecommons.org/ns#"
   xmlns:rdf="http://www.w3.org/1999/02/22-rdf-syntax-ns#"
   xmlns:svg="http://www.w3.org/2000/svg"
   xmlns="http://www.w3.org/2000/svg"
   xmlns:sodipodi="http://sodipodi.sourceforge.net/DTD/sodipodi-0.dtd"
   xmlns:inkscape="http://www.inkscape.org/namespaces/inkscape"
   width="841"
   height="401.00009"
   version="1.1"
   id="svg18"
   sodipodi:docname="sample-layout.svg"
   inkscape:version="0.92.3 (2405546, 2018-03-11)">
  <metadata
     id="metadata24">
    <rdf:RDF>
      <cc:Work
         rdf:about="">
        <dc:format>image/svg+xml</dc:format>
        <dc:type
           rdf:resource="http://purl.org/dc/dcmitype/StillImage" />
        <dc:title></dc:title>
      </cc:Work>
    </rdf:RDF>
  </metadata>
  <defs
     id="defs22" />
  <sodipodi:namedview
     pagecolor="#ffffff"
     bordercolor="#666666"
     borderopacity="1"
     objecttolerance="10"
     gridtolerance="10"
     guidetolerance="10"
     inkscape:pageopacity="0"
     inkscape:pageshadow="2"
     inkscape:window-width="1141"
     inkscape:window-height="480"
     id="namedview20"
     showgrid="false"
     fit-margin-top="0"
     fit-margin-left="0"
     fit-margin-right="0"
     fit-margin-bottom="0"
     inkscape:zoom="0.63760518"
     inkscape:cx="333.82818"
     inkscape:cy="226.65803"
     inkscape:window-x="1195"
     inkscape:window-y="641"
     inkscape:window-maximized="0"
     inkscape:current-layer="svg18" />
  <!-- Created with SVG-edit - https://github.com/SVG-Edit/svgedit-->
  <g
     id="TABLE_1"
     class="clickable"
     transform="translate(-112.94,-35.919898)">
    <path
       style="stroke:#000000;stroke-width:5"
       d="m 460.44,233.92 a 148,144 0 0 1 -148,144 148,144 0 0 1 -148,-144 148,144 0 0 1 148,-144.000002 148,144 0 0 1 148,144.000002 z"
       id="svg_1" />
    <path
       style="stroke:#000000;stroke-width:5"
       d="m 115.44,175.92 h 33 v 104 h -33 z"
       id="svg_2" />
    <path
       style="stroke:#000000;stroke-width:5"
       d="m 478.44,182.92 h 33 v 104 h -33 z"
       id="svg_3" />
    <path
       transform="rotate(-90,317.94,54.9199)"
       style="stroke:#000000;stroke-width:5"
       d="m 301.44,2.9200001 h 33 V 106.92 h -33 z"
       id="svg_4" />
    <path
       transform="rotate(-90,315.94,410.92)"
       style="stroke:#000000;stroke-width:5"
       d="m 299.44,358.92001 h 33 v 104 h -33 z"
       id="svg_5" />
  </g>
  <g
     transform="translate(327.06,-28.919898)"
     id="TABLE_2"
     class="clickable">
    <path
       style="stroke:#000000;stroke-width:5"
       d="m 460.44,233.92 a 148,144 0 0 1 -148,144 148,144 0 0 1 -148,-144 148,144 0 0 1 148,-144.000002 148,144 0 0 1 148,144.000002 z"
       id="svg_14" />
    <path
       style="stroke:#000000;stroke-width:5"
       d="m 115.44,175.92 h 33 v 104 h -33 z"
       id="svg_15" />
    <path
       style="stroke:#000000;stroke-width:5"
       d="m 478.44,182.92 h 33 v 104 h -33 z"
       id="svg_16" />
    <path
       transform="rotate(-90,317.94,54.9199)"
       style="stroke:#000000;stroke-width:5"
       d="m 301.44,2.9200001 h 33 V 106.92 h -33 z"
       id="svg_17" />
    <path
       transform="rotate(-90,315.94,410.92)"
       style="stroke:#000000;stroke-width:5"
       d="m 299.44,358.92001 h 33 v 104 h -33 z"
       id="svg_18" />
  </g>
</svg>
